<svg xmlns="http://www.w3.org/2000/svg" xmlns:xlink="http://www.w3.org/1999/xlink" width="24" height="24" preserveAspectRatio="xMidYMid meet" viewBox="0 0 24 24" style="-ms-transform: rotate(360deg); -webkit-transform: rotate(360deg); transform: rotate(360deg);"><path d="M7.5 15c1.13 0 2.32.26 3.59.77c1.26.52 1.91 1.18 1.91 2V20H2v-2.23c0-.82.65-1.48 1.91-2C5.18 15.26 6.38 15 7.5 15m5.5-2h9v2h-9v-2m0-4h9v2h-9V9m0-4h9v2h-9V5M7.5 8a2.5 2.5 0 0 1 2.5 2.5A2.5 2.5 0 0 1 7.5 13A2.5 2.5 0 0 1 5 10.5A2.5 2.5 0 0 1 7.5 8z" fill="#626262"/><rect x="0" y="0" width="24" height="24" fill="rgba(0, 0, 0, 0)" /></svg>