<svg xmlns="http://www.w3.org/2000/svg" xmlns:xlink="http://www.w3.org/1999/xlink" viewBox="0 0 640 480"><symbol id="A" viewBox="-124 -201.5 248 403"><image width="248" height="403" xlink:href="FBEE6FA3.png" transform="matrix(1 0 0 -1 -124 201.5)" overflow="visible" opacity=".85"/><image width="196" height="353" xlink:href="FBEE6FA1.png" transform="matrix(1 0 0 -1 -78 162.5)" overflow="visible" opacity=".6"/><path d="M85-165.5H-57c-6.6,0-12,5.4-12,12v299c0,6.6,5.4,12,12,12H85c6.6,0,12-5.4,12-12v-299 C97-160.1,91.6-165.5,85-165.5z" fill="#fff"/><path d="M85,156.5c6.1,0,11-4.9,11-11v-299c0-6.1-4.9-11-11-11H-57c-6.1,0-11,4.9-11,11v299c0,6.1,4.9,11,11,11H85 M85,157.5 H-57c-6.6,0-12-5.4-12-12v-299c0-6.6,5.4-12,12-12H85c6.6,0,12,5.4,12,12v299C97,152.1,91.6,157.5,85,157.5L85,157.5z"/><path d="M-66.5-118h161v254h-161z" fill="#ccc"/><path d="M94 135.5v-253H-66v253H94m1 1H-67v-255H95v255z"/><circle cx="14" cy="149.5" r="3.5" fill="#666"/><path d="M14 152.5c1.7 0 3-1.3 3-3s-1.3-3-3-3-3 1.3-3 3 1.3 3 3 3m0 1c-2.2 0-4-1.8-4-4s1.8-4 4-4 4 1.8 4 4-1.8 4-4 4h0z"/><circle cx="14" cy="-139.5" r="13.5" fill="#ccc"/><path d="M14-126.5c7.2 0 13-5.8 13-13s-5.8-13-13-13-13 5.8-13 13 5.8 13 13 13m0 1c-7.7 0-14-6.3-14-14s6.3-14 14-14 14 6.3 14 14-6.3 14-14 14h0z"/><circle cx="14" cy="-139.5" r="10.5" fill="#fff"/><path d="M14-129.5c5.5 0 10-4.5 10-10s-4.5-10-10-10-10 4.5-10 10 4.5 10 10 10m0 1a11 11 0 1 1 0-22 11 11 0 1 1 0 22h0zm-83 185h-1v-14h1v14zm0-21h-1v-14h1v14z"/><path d="M4 140a.47.47 0 1 0 0 1h20a.47.47 0 1 0 0-1H4z" fill="#666"/><path d="M24 141.5H4a.94.94 0 1 1 0-2h20a.94.94 0 1 1 0 2h0z"/></symbol><use xlink:href="#A" width="248" height="403" x="-124" y="-201.5" transform="matrix(1 0 0 -1 143 194.5)"/><use xlink:href="#A" width="248" height="403" x="-124" y="-201.5" transform="matrix(0 1 1 0 447.5 272)"/><path d="M354.6 143.9h0v-31.1s.5-19.8-25.5-19.8l-2.1.1V93h-61v17h63.9c5.5 0 8.6 2.9 8.6 6.6v27.3h-10.3l19.3 27.1 17.6-27.1h-10.5z" fill="#231f20"/></svg>